rec1_001.mot
nRows=22
nColumns=19

name rec1_001.mot
datacolumns 19
datarows 22
range 15.0061167893 15.0481169174
endheader
time	ground_force_vx	ground_force_vy	ground_force_vz	ground_force_px	ground_force_py	ground_force_pz	1_ground_force_vx	1_ground_force_vy	1_ground_force_vz	1_ground_force_px	1_ground_force_py	1_ground_force_pz	ground_torque_x	ground_torque_y	ground_torque_z	1_ground_torque_x	1_ground_torque_y	1_ground_torque_z	
       15.0061167893	        5.1746729602	       24.2160245936	       -1.5219407409	       -0.7000000000	       -0.0180000000	        0.5600000000	       83.4403805255	      729.9504025039	       54.0950498138	       -0.7000000000	       -0.0180000000	       -0.5600000000	       10.9051474952	       -1.6764598528	       27.2096178690	     -316.0797020199	      -10.3192321844	      577.6732941211	
       15.0081165250	        6.9511232960	       29.2259773668	       -1.6533767445	       -0.7000000000	       -0.0180000000	        0.5600000000	       84.7958888488	      729.0678362006	       54.4483336881	       -0.7000000000	       -0.0180000000	       -0.5600000000	       13.4197185873	       -2.3417220890	       33.5564768650	     -315.6318886310	       -9.9057602323	      575.6382634563	
       15.0101168205	        9.0465571993	       35.0716508790	       -1.7468723264	       -0.7000000000	       -0.0180000000	        0.5600000000	       86.1677361749	      728.0029645828	       54.8007265185	       -0.7000000000	       -0.0180000000	       -0.5600000000	       16.3601431505	       -3.1859916222	       40.9329372996	     -315.1040089919	       -9.4831665660	      573.4572995583	
       15.0121165562	       11.4439522014	       41.7806974178	       -1.7831054928	       -0.7000000000	       -0.0180000000	        0.5600000000	       87.5586219976	      726.7585806655	       55.1455791354	       -0.7000000000	       -0.0180000000	       -0.5600000000	       19.7418644861	       -4.2235181952	       49.3666126400	     -314.4981355593	       -9.0451970494	      571.1332965104	
       15.0141168518	       14.1048188719	       49.3602051820	       -1.7420008221	       -0.7000000000	       -0.0180000000	        0.5600000000	       88.9713866565	      725.3371313282	       55.4758862207	       -0.7000000000	       -0.0180000000	       -0.5600000000	       23.5701464813	       -5.4606355678	       58.8591004311	     -313.8160919937	       -8.5853188978	      568.6697560150	
       15.0161165475	       16.9696858649	       57.7939302988	       -1.6035081056	       -0.7000000000	       -0.0180000000	        0.5600000000	       90.4080779089	      723.7403859975	       55.7840344965	       -0.7000000000	       -0.0180000000	       -0.5600000000	       27.8387297854	       -6.8954535933	       69.3823115774	     -313.0592340151	       -8.0968169848	      566.0703153579	
       15.0181169230	       19.9610960355	       67.0410931652	       -1.3482227438	       -0.7000000000	       -0.0180000000	        0.5600000000	       91.8691739262	      721.9687272629	       56.0616379401	       -0.7000000000	       -0.0180000000	       -0.5600000000	       32.5290151604	       -8.5184639280	       80.8771358705	     -312.2281670448	       -7.5728379144	      563.3378462609	
       15.0201166187	       22.9882490081	       77.0367458864	       -0.9582776559	       -0.7000000000	       -0.0180000000	        0.5600000000	       93.3533646471	      720.0203216019	       56.2996380229	       -0.7000000000	       -0.0180000000	       -0.5600000000	       37.6099693885	      -10.3128138219	       93.2546082136	     -311.3224989698	       -7.0064495433	      560.4735357228	
       15.0221170344	       25.9520909153	       87.6932937898	       -0.4188138557	       -0.7000000000	       -0.0180000000	        0.5600000000	       94.8579413864	      717.8906864275	       56.4886439829	       -0.7000000000	       -0.0180000000	       -0.5600000000	       43.0387774350	      -12.2541446247	      106.3987646794	     -310.3407576471	       -6.3907704484	      557.4764007156	
       15.0241166500	       28.7498853391	       98.9030548788	        0.2801854637	       -0.7000000000	       -0.0180000000	        0.5600000000	       96.3795351856	      715.5728063733	       56.6192925746	       -0.7000000000	       -0.0180000000	       -0.5600000000	       48.7621481945	      -14.3102924292	      120.1705151422	     -309.2804361865	       -5.7191368014	      554.3433148500	
       15.0261169455	       31.2791115930	      110.5418907257	        1.1422244338	       -0.7000000000	       -0.0180000000	        0.5600000000	       97.9147981185	      713.0574807065	       56.6824777070	       -0.7000000000	       -0.0180000000	       -0.5600000000	       54.7181612292	      -16.4417752551	      134.4123731384	     -308.1380441911	       -4.9852879594	      551.0692965951	
       15.0281167211	       33.4412696607	      122.4736439685	        2.1632303194	       -0.7000000000	       -0.0180000000	        0.5600000000	       99.4606476233	      710.3335724929	       56.6695107673	       -0.7000000000	       -0.0180000000	       -0.5600000000	       60.8385355568	      -18.6034046141	      148.9539399574	     -306.9091383550	       -4.1836493540	      547.6477561578	
       15.0301170168	       35.1463313713	      134.5552336486	        3.3313074736	       -0.7000000000	       -0.0180000000	        0.5600000000	      101.0139706706	      707.3880858510	       56.5723228918	       -0.7000000000	       -0.0180000000	       -0.5600000000	       67.0512645638	      -20.7464928450	      163.6182450891	     -305.5883833065	       -3.3097248459	      544.0705395463	
       15.0321167924	       36.3180645762	      146.6426043805	        4.6273207910	       -0.7000000000	       -0.0180000000	        0.5600000000	      102.5710498501	      704.2061224463	       56.3837349518	       -0.7000000000	       -0.0180000000	       -0.5600000000	       73.2836284672	      -22.8216517518	      178.2292993798	     -304.1696277791	       -2.3604888513	      540.3277984098	
       15.0341170480	       36.8996094614	      158.5975207429	        6.0261568385	       -0.7000000000	       -0.0180000000	        0.5600000000	      104.1271144594	      700.7707749816	       56.0977777718	       -0.7000000000	       -0.0180000000	       -0.5600000000	       79.4654924600	      -24.7816998878	      192.6207069141	     -302.6459580608	       -1.3346834742	      536.4077813725	
       15.0361167436	       36.8579875295	      170.2943844304	        7.4984938048	       -0.7000000000	       -0.0180000000	        0.5600000000	      105.6762993014	      697.0632265825	       55.7100269011	       -0.7000000000	       -0.0180000000	       -0.5600000000	       85.5325190147	      -26.5839592660	      206.6440360557	     -301.0098142096	       -0.2329984197	      532.2968361889	
       15.0381170393	       36.1860970553	      181.6257789990	        9.0128696718	       -0.7000000000	       -0.0180000000	        0.5600000000	      107.2120111129	      693.0632749234	       55.2177821391	       -0.7000000000	       -0.0180000000	       -0.5600000000	       91.4288310035	      -28.1926111147	      220.1751965498	     -299.2532247063	        0.9419765162	      527.9798266530	
       15.0401167748	       34.9014195390	      192.5061164196	       10.5377301793	       -0.7000000000	       -0.0180000000	        0.5600000000	      108.7275404973	      688.7500955237	       54.6198370553	       -0.7000000000	       -0.0180000000	       -0.5600000000	       97.1089838701	      -29.5811124516	      233.1181817506	     -297.3680379875	        2.1862300850	      523.4408667666	
       15.0421171105	       33.0418013831	      202.8739300810	       12.0432150056	       -0.7000000000	       -0.0180000000	        0.5600000000	      110.2166994367	      684.1029596029	       53.9159246148	       -0.7000000000	       -0.0180000000	       -0.5600000000	      102.5394359034	      -30.7332885772	      245.4070626359	     -295.3460672848	        3.4951218904	      518.6641980904	
       15.0441168061	       30.6597028086	      212.6937068661	       13.5025838559	       -0.7000000000	       -0.0180000000	        0.5600000000	      111.6742049249	      679.1018188777	       53.1061939581	       -0.7000000000	       -0.0180000000	       -0.5600000000	      107.6996665471	      -31.6427751300	      257.0074506639	     -293.1792247306	        4.8640974479	      513.6350037487	
       15.0461171018	       27.8166123051	      221.9573722428	       14.8931559984	       -0.7000000000	       -0.0180000000	        0.5600000000	      113.0955834746	      673.7278026774	       52.1909414730	       -0.7000000000	       -0.0180000000	       -0.5600000000	      112.5828707294	      -32.3113798665	      267.9177217587	     -290.8597130922	        6.2890225144	      508.3399891916	
       15.0481169174	       24.5788940136	      230.6848540998	       16.1965456882	       -0.7000000000	       -0.0180000000	        0.5600000000	      114.4765924486	      667.9635563370	       51.1706150095	       -0.7000000000	       -0.0180000000	       -0.5600000000	      117.1961211805	      -32.7471387559	      278.1695206373	     -288.3802267521	        7.7660666302	      502.7676027490	
